<mxfile host="app.diagrams.net" modified="2024-06-28T13:22:08.096Z" agent="Mozilla/5.0 (Windows NT 10.0; Win64; x64) AppleWebKit/537.36 (KHTML, like Gecko) Chrome/126.0.0.0 Safari/537.36" version="24.6.4" etag="9EDstNfQ9FiZ9c816lCI" type="github">
  <diagram name="Page-1" id="6oAz2Gbvcs9kiHAnfYIY">
    <mxGraphModel>
      <root>
        <mxCell id="0" />
        <mxCell id="1" parent="0" />
      </root>
    </mxGraphModel>
  </diagram>
</mxfile>
